<svg width="91" height="13" viewBox="0 0 91 13" fill="none" xmlns="http://www.w3.org/2000/svg">
<path d="M85.1948 0.149807C85.5222 -0.0933887 85.9916 -0.0342441 86.2434 0.28191L90.8449 6.05966C91.0517 6.31926 91.0517 6.68074 90.8449 6.94034L86.2434 12.7181C85.9916 13.0342 85.5222 13.0934 85.1948 12.8502C84.8675 12.607 84.8063 12.1536 85.0581 11.8374L88.8895 7.02534L0.747746 7.02559C0.369191 7.02559 0.0563392 6.75388 0.00682604 6.40137L0 6.30337C0 5.9045 0.334777 5.58115 0.747746 5.58115L88.5765 5.5809L85.0581 1.1626C84.8292 0.875186 84.859 0.474312 85.1122 0.221084L85.1948 0.149807Z" fill="white"/>
</svg>
