<svg width="21" height="21" viewBox="0 0 21 21" fill="none" xmlns="http://www.w3.org/2000/svg">
<path d="M11.8998 10.5107L20.3409 2.0256C20.7651 1.59921 20.7651 1.00227 20.3409 0.575886C19.9168 0.149501 19.3229 0.149501 18.8987 0.575886L10.4576 9.06095L1.97402 0.618525C1.59226 0.19214 0.955992 0.19214 0.574231 0.618525C0.192471 1.04491 0.150053 1.64185 0.574231 2.06823L9.01538 10.5107L0.574231 18.9957C0.150053 19.4221 0.150053 20.019 0.574231 20.4454C0.78632 20.616 0.998409 20.7439 1.29533 20.7439C1.59226 20.7439 1.80435 20.6586 2.01644 20.4454L10.5 11.9604L18.9836 20.4028C19.1957 20.5733 19.4926 20.7013 19.7047 20.7013C19.9168 20.7013 20.2137 20.616 20.4258 20.4028C20.8499 19.9764 20.8499 19.3795 20.4258 18.9531L11.8998 10.5107Z" fill="#0D0D09" stroke="#0D0D09" stroke-width="0.5"/>
</svg>
