<svg width="56" height="23" viewBox="0 0 56 23" fill="none" xmlns="http://www.w3.org/2000/svg">
<path d="M45.5524 0.215819C45.9855 -0.126863 46.6144 -0.0535548 46.9571 0.379557L55.2647 10.8795C55.2678 10.8834 55.2708 10.8872 55.2738 10.8911C55.2948 10.9183 55.3143 10.9467 55.3324 10.976C55.3382 10.9856 55.3439 10.9952 55.3494 11.0049C55.3614 11.0257 55.3727 11.0471 55.3831 11.069C55.3909 11.0856 55.3982 11.1019 55.405 11.1184C55.4139 11.1395 55.4221 11.1615 55.4295 11.1839C55.434 11.1978 55.4382 11.2115 55.4421 11.2252C55.4498 11.2516 55.4564 11.279 55.4619 11.3068C55.4629 11.3129 55.464 11.3186 55.465 11.3243C55.4746 11.3779 55.4799 11.4335 55.4805 11.4902L55.4762 11.4071C55.4783 11.4292 55.4796 11.4513 55.4802 11.4734L55.4805 11.4902C55.4806 11.498 55.4805 11.5058 55.4804 11.5136C55.4801 11.537 55.479 11.5605 55.477 11.5839C55.4751 11.6074 55.4724 11.6305 55.4689 11.6533C55.4666 11.6669 55.4642 11.6809 55.4614 11.6948C55.4573 11.7165 55.4524 11.7376 55.4468 11.7584C55.4416 11.7773 55.4358 11.7966 55.4295 11.8158C55.4242 11.8322 55.4185 11.848 55.4124 11.8636C55.4052 11.8815 55.3974 11.9 55.3889 11.9183C55.3776 11.9432 55.3655 11.9667 55.3527 11.9896C55.3273 12.0346 55.2979 12.0786 55.2647 12.1205L55.3336 12.022C55.3145 12.0532 55.2938 12.0832 55.2714 12.112L55.2647 12.1205L46.9571 22.6205C46.6144 23.0536 45.9855 23.1269 45.5524 22.7842C45.1193 22.4415 45.046 21.8126 45.3886 21.3795L52.3975 12.52L1.00971 13.025C0.496903 13.03 0.0704637 12.6481 0.0078196 12.1514L-5.25562e-05 12.0348C-0.00547385 11.4826 0.437824 11.0305 0.99008 11.0251L52.4295 10.52L45.3886 1.62052C45.0723 1.22072 45.1104 0.654097 45.4588 0.299761L45.5524 0.215819Z" fill="white"/>
</svg>
