<svg width="25" height="22" viewBox="0 0 25 22" fill="none" xmlns="http://www.w3.org/2000/svg">
<path fill-rule="evenodd" clip-rule="evenodd" d="M12.5182 1.53702C15.6512 -0.729749 19.9823 -0.392783 22.7208 2.3308C25.7597 5.36386 25.7597 10.2619 22.7208 13.2949L14.9563 21.0095C13.6035 22.3302 11.4329 22.3302 10.0801 21.0095L2.3156 13.2949C-0.603069 10.4199 -0.785397 5.79603 1.89797 2.70361C4.58133 -0.388816 9.21778 -0.898114 12.5182 1.53702ZM13.1934 19.2855L20.9578 11.5833V11.5461C22.9698 9.45118 22.9253 6.14538 20.8578 4.10441C18.7785 2.06797 15.4352 2.06797 13.3559 4.10441C13.1211 4.33921 12.8016 4.47128 12.4682 4.47128C12.1348 4.47128 11.8152 4.33921 11.5805 4.10441C9.50115 2.06797 6.15785 2.06797 4.07855 4.10441C2.03905 6.17246 2.03905 9.47806 4.07855 11.5461L11.843 19.2855C12.0215 19.4643 12.2646 19.5648 12.5182 19.5648C12.7718 19.5648 13.0149 19.4643 13.1934 19.2855Z" fill="black"/>
</svg>
