<svg width="269" height="130" viewBox="0 0 269 130" fill="none" xmlns="http://www.w3.org/2000/svg">
<path d="M117.003 21.772C117.035 16.9722 118.961 12.3759 122.367 8.9688C125.773 5.5617 130.388 3.61508 135.223 3.54637C145.591 3.42305 154.014 12.1536 153.947 22.4543L153.865 34.0292C153.852 35.7005 153.429 37.3435 152.631 38.815C151.832 40.2865 150.684 41.542 149.285 42.4721L139.786 48.7774C138.387 49.7075 137.239 50.9631 136.44 52.4346C135.642 53.9061 135.218 55.549 135.206 57.2203L135.123 70.1517" stroke="#0D0D09" stroke-width="7.09" stroke-miterlimit="10"/>
<path d="M106.519 104.934C106.627 89.6351 113.666 71.3519 134.676 71.4917C157.567 71.6479 162.453 90.0215 162.345 105.32" stroke="#0D0D09" stroke-width="7.09" stroke-miterlimit="10"/>
<path d="M6.85825 129.523C7.28018 129.523 7.70138 129.488 8.11704 129.416L109.525 111.733L109.625 102.262L110.08 97.7902L5.73197 115.95C4.02991 116.24 2.49927 117.153 1.44249 118.509C0.385707 119.865 -0.120374 121.565 0.0242455 123.273C0.168865 124.981 0.953673 126.573 2.22359 127.735C3.4935 128.897 5.15617 129.543 6.88309 129.547L6.85825 129.523Z" fill="#0D0D09"/>
<path d="M262.117 128.599C261.695 128.599 261.274 128.564 260.858 128.492L159.45 110.804L159.351 101.331L159.003 96.8573L263.268 115.022C264.97 115.312 266.501 116.225 267.557 117.582C268.614 118.938 269.12 120.638 268.976 122.347C268.831 124.056 268.046 125.648 266.776 126.81C265.506 127.973 263.844 128.619 262.117 128.623V128.599Z" fill="#0D0D09"/>
</svg>
