<svg width="92" height="17" viewBox="0 0 92 17" fill="none" xmlns="http://www.w3.org/2000/svg">
<path d="M80.6007 0C80.2545 0 79.9741 0.26485 79.9741 0.591429V4.73944H91.5757L86.2923 0.000383514L80.6007 0Z" fill="white"/>
<path d="M92.0001 5.99426C92.0001 5.66692 91.7217 5.40321 91.3735 5.40321H86.9827V16.3606L91.9981 11.3686L92.0001 5.99426Z" fill="white"/>
<path d="M85.6525 16.7574C85.9978 16.7574 86.2783 16.4922 86.2783 16.1648V12.0183H74.6763L79.9604 16.7566L85.6525 16.7574Z" fill="white"/>
<path d="M74.2521 10.7639C74.2521 11.0909 74.5325 11.3572 74.8795 11.3572H79.2695V0.399026L74.2529 5.38958L74.2521 10.7639Z" fill="white"/>
<path d="M23.6526 2.17859V7.21812H16.4596V2.17859L13.8398 2.17631V14.8831H16.4596V9.42422H23.6526V14.8831H26.2767V2.17859H23.6526Z" fill="white"/>
<path d="M58.5044 2.17852V14.88H69.9981L68.5424 12.6439H61.1316V9.42415H68.3075V7.27042H61.1316V4.36223H68.5299L69.9561 2.17852H58.5044Z" fill="white"/>
<path d="M4.10157 2.17558C1.3764 2.17558 0 3.79268 0 6.14565V10.8888C0 13.6118 1.77376 14.8831 4.08797 14.8831L12.3075 14.8824L10.7837 12.5598H4.59576C3.28118 12.5598 2.70846 12.096 2.70846 10.6599V6.35666C2.70846 4.96841 3.19059 4.42684 4.63075 4.42684H10.8482L12.3113 2.17558H4.10157Z" fill="white"/>
<path d="M47.008 2.17248C45.4341 2.17248 43.821 3.09583 43.821 5.47082V6.08107C43.821 8.557 45.3731 9.5016 46.926 9.50806H52.3768C52.9429 9.50806 53.4028 9.5999 53.4028 10.5339L53.4021 11.6128C53.3877 12.4519 52.9588 12.644 52.3573 12.644H45.1865L43.7175 14.88H52.5261C54.6501 14.88 56.0922 13.8485 56.0922 11.466V10.5904C56.0922 8.28679 54.7524 7.19835 52.675 7.19835H47.4703C46.8933 7.19835 46.4913 7.04465 46.4913 6.21048V5.33191C46.4913 4.62147 46.767 4.36227 47.4392 4.36227L54.2683 4.35961L55.6957 2.16945L47.008 2.17248Z" fill="white"/>
<path fill-rule="evenodd" clip-rule="evenodd" d="M27.7158 14.8823L33.8882 2.17852H36.4843L42.6711 14.8823H39.741L38.5426 12.2587H31.8353L30.633 14.8823H27.7158ZM37.5543 10.0963L35.1825 4.81612L32.8259 10.0963H37.5543Z" fill="white"/>
</svg>
