<svg width="24" height="24" viewBox="0 0 24 24" fill="none" xmlns="http://www.w3.org/2000/svg">
<path d="M12 2C13.8565 2 15.6369 2.7375 16.9497 4.05025C18.2625 5.36301 19 7.14348 19 9H20.074C20.3258 9.00001 20.5684 9.09507 20.7533 9.26618C20.9381 9.4373 21.0516 9.67187 21.071 9.923L21.917 20.923C21.9374 21.1874 21.8519 21.4491 21.6794 21.6505C21.5068 21.8519 21.2614 21.9766 20.997 21.997L20.92 22H3.07996C2.81474 22 2.56039 21.8946 2.37285 21.7071C2.18531 21.5196 2.07996 21.2652 2.07996 21L2.08296 20.923L2.92896 9.923C2.94835 9.67187 3.0618 9.4373 3.24664 9.26618C3.43147 9.09507 3.67407 9.00001 3.92596 9H4.99996C4.99996 7.14348 5.73745 5.36301 7.05021 4.05025C8.36296 2.7375 10.1434 2 12 2ZM19.147 11H4.85196L4.15896 20H19.84L19.147 11ZM14 13V15H9.99996V13H14ZM12 4C10.7115 4.00007 9.4728 4.49754 8.54218 5.38866C7.61156 6.27978 7.06088 7.49575 7.00496 8.783L6.99996 9H17C16.9999 7.71154 16.5024 6.47284 15.6113 5.54222C14.7202 4.61161 13.5042 4.06092 12.217 4.005L12 4Z" fill="#0D0D09"/>
</svg>
